<svg xmlns="http://www.w3.org/2000/svg" xmlns:xlink="http://www.w3.org/1999/xlink" width="40" height="40" viewBox="0 0 36 36">
  <defs>
    <style>
      .cls-1 {
        fill: url(#linear-gradient);
      }

      .cls-2 {
        fill-rule: evenodd;
      }
    </style>
    <linearGradient id="linear-gradient" x1="18" y1="36" x2="18" gradientUnits="userSpaceOnUse">
      <stop offset="0" stop-color="#7683d9"/>
      <stop offset="1" stop-color="#d8a0fe"/>
    </linearGradient>
  </defs>
  <rect id="Прямоугольник_7" data-name="Прямоугольник 7" class="cls-1" width="36" height="36"/>
  <rect id="Прямоугольник_1" data-name="Прямоугольник 1" x="2" y="2" width="5" height="32"/>
  <rect id="Прямоугольник_2" data-name="Прямоугольник 2" x="7" y="29" width="27" height="5"/>
  <rect id="Прямоугольник_3" data-name="Прямоугольник 3" x="29" y="2" width="5" height="20"/>
  <rect id="Прямоугольник_4" data-name="Прямоугольник 4" x="14" y="2" width="15" height="5"/>
  <path id="Прямоугольник_5" data-name="Прямоугольник 5" class="cls-2" d="M19,11h4V28H19V11Zm-1,0H13s-5-.484-5,4v2s0,4,5,4c3.06,0,1.773,3,0,3H8v4h5s5,0.453,5-4V21s-0.015-3.61-5-4c-2.409-.188-2.159-1.8,0-2,0.7-.066,5,0,5,0"/>
  <rect id="Прямоугольник_6" data-name="Прямоугольник 6" x="22" y="24" width="7" height="4"/>
</svg>
